<svg xmlns="http://www.w3.org/2000/svg" xmlns:xlink="http://www.w3.org/1999/xlink" width="500" zoomAndPan="magnify" viewBox="0 0 375 374.999991" height="500" preserveAspectRatio="xMidYMid meet" version="1.0"><path fill="rgb(20.388794%, 59.609985%, 85.879517%)" d="M 46.871094 366.617188 C 46.871094 358.316406 46.871094 141.683594 46.871094 8.300781 C 46.871094 0 55.40625 0 55.40625 0 L 249.800781 0 L 327.847656 78.125 C 327.847656 78.125 327.847656 358.316406 327.847656 366.699219 C 327.847656 375 319.3125 375 319.3125 375 L 55.40625 375 C 55.40625 375 46.871094 375 46.871094 366.617188 Z M 46.871094 366.617188 " fill-opacity="1" fill-rule="evenodd"/><path fill="rgb(92.549133%, 94.119263%, 94.509888%)" d="M 62.480469 15.625 L 249.800781 15.625 L 312.238281 78.125 L 312.238281 359.375 L 62.480469 359.375 Z M 62.480469 15.625 " fill-opacity="1" fill-rule="evenodd"/><path fill="rgb(16.079712%, 50.19989%, 72.549438%)" d="M 249.800781 0 L 249.800781 70.3125 C 249.800781 78.125 257.605469 78.125 257.605469 78.125 L 327.847656 78.125 Z M 249.800781 0 " fill-opacity="1" fill-rule="evenodd"/><path fill="rgb(17.248535%, 24.308777%, 31.369019%)" d="M 93.699219 62.5 L 218.578125 62.5 L 218.578125 78.125 L 93.699219 78.125 Z M 93.699219 62.5 " fill-opacity="1" fill-rule="evenodd"/><path fill="rgb(17.248535%, 24.308777%, 31.369019%)" d="M 93.699219 109.375 L 281.019531 109.375 L 281.019531 125 L 93.699219 125 Z M 93.699219 109.375 " fill-opacity="1" fill-rule="evenodd"/><path fill="rgb(17.248535%, 24.308777%, 31.369019%)" d="M 93.699219 156.25 L 281.019531 156.25 L 281.019531 171.875 L 93.699219 171.875 Z M 93.699219 156.25 " fill-opacity="1" fill-rule="evenodd"/><path fill="rgb(17.248535%, 24.308777%, 31.369019%)" d="M 93.699219 203.125 L 281.019531 203.125 L 281.019531 218.75 L 93.699219 218.75 Z M 93.699219 203.125 " fill-opacity="1" fill-rule="evenodd"/><path fill="rgb(17.248535%, 24.308777%, 31.369019%)" d="M 93.699219 250 L 281.019531 250 L 281.019531 265.625 L 93.699219 265.625 Z M 93.699219 250 " fill-opacity="1" fill-rule="evenodd"/><path fill="rgb(17.248535%, 24.308777%, 31.369019%)" d="M 93.699219 296.875 L 281.019531 296.875 L 281.019531 312.5 L 93.699219 312.5 Z M 93.699219 296.875 " fill-opacity="1" fill-rule="evenodd"/></svg>