<svg xmlns="http://www.w3.org/2000/svg" xmlns:xlink="http://www.w3.org/1999/xlink" width="500" zoomAndPan="magnify" viewBox="0 0 375 374.999991" height="500" preserveAspectRatio="xMidYMid meet" version="1.0"><path fill="rgb(61.178589%, 63.919067%, 68.629456%)" d="M 46.871094 367.1875 L 46.871094 7.8125 C 46.871094 3.5 50.367188 0 54.675781 0 L 246.710938 0 C 248.742188 0 250.695312 0.8125 252.15625 2.277344 L 325.574219 75.765625 C 327.035156 77.230469 327.847656 79.183594 327.847656 81.21875 L 327.847656 367.1875 C 327.847656 371.5 324.351562 375 320.042969 375 L 54.675781 375 C 50.367188 375 46.871094 371.5 46.871094 367.1875 Z M 312.238281 359.375 L 312.238281 93.75 L 241.996094 93.75 C 237.683594 93.75 234.1875 90.25 234.1875 85.9375 L 234.1875 15.625 L 62.480469 15.625 L 62.480469 359.375 Z M 305.816406 78.125 L 249.800781 22.054688 L 249.800781 78.125 Z M 305.816406 78.125 " fill-opacity="1" fill-rule="nonzero"/><path fill="rgb(61.178589%, 63.919067%, 68.629456%)" d="M 273.214844 156.25 L 101.503906 156.25 C 97.195312 156.25 93.699219 152.75 93.699219 148.4375 C 93.699219 144.125 97.195312 140.625 101.503906 140.625 L 273.214844 140.625 C 277.523438 140.625 281.019531 144.125 281.019531 148.4375 C 281.019531 152.75 277.523438 156.25 273.214844 156.25 Z M 210.773438 203.125 L 101.503906 203.125 C 97.195312 203.125 93.699219 199.625 93.699219 195.3125 C 93.699219 191 97.195312 187.5 101.503906 187.5 L 210.773438 187.5 C 215.082031 187.5 218.578125 191 218.578125 195.3125 C 218.578125 199.625 215.082031 203.125 210.773438 203.125 Z M 241.996094 250 L 101.503906 250 C 97.195312 250 93.699219 246.5 93.699219 242.1875 C 93.699219 237.875 97.195312 234.375 101.503906 234.375 L 241.996094 234.375 C 246.304688 234.375 249.800781 237.875 249.800781 242.1875 C 249.800781 246.5 246.304688 250 241.996094 250 Z M 179.554688 296.875 L 101.503906 296.875 C 97.195312 296.875 93.699219 293.375 93.699219 289.0625 C 93.699219 284.75 97.195312 281.25 101.503906 281.25 L 179.554688 281.25 C 183.863281 281.25 187.359375 284.75 187.359375 289.0625 C 187.359375 293.375 183.863281 296.875 179.554688 296.875 Z M 179.554688 296.875 " fill-opacity="1" fill-rule="nonzero"/></svg>