<svg xmlns="http://www.w3.org/2000/svg" xmlns:xlink="http://www.w3.org/1999/xlink" width="500" zoomAndPan="magnify" viewBox="0 0 375 374.999991" height="500" preserveAspectRatio="xMidYMid meet" version="1.0"><defs><clipPath id="id1"><path d="M 36.328125 1.441406 L 338.578125 1.441406 L 338.578125 373.441406 L 36.328125 373.441406 Z M 36.328125 1.441406 " clip-rule="nonzero"/></clipPath><clipPath id="id2"><path d="M 82 1.441406 L 130 1.441406 L 130 107 L 82 107 Z M 82 1.441406 " clip-rule="nonzero"/></clipPath></defs><g clip-path="url(#id1)"><path fill="rgb(61.178589%, 63.919067%, 68.629456%)" d="M 292.074219 373.441406 L 82.832031 373.441406 C 81.308594 373.441406 79.789062 373.367188 78.273438 373.21875 C 76.757812 373.070312 75.253906 372.847656 73.757812 372.546875 C 72.265625 372.25 70.789062 371.882812 69.332031 371.441406 C 67.875 370.996094 66.445312 370.484375 65.035156 369.902344 C 63.628906 369.320312 62.253906 368.667969 60.910156 367.953125 C 59.570312 367.234375 58.265625 366.453125 56.996094 365.605469 C 55.730469 364.757812 54.507812 363.851562 53.332031 362.886719 C 52.15625 361.921875 51.027344 360.898438 49.953125 359.824219 C 48.875 358.746094 47.851562 357.617188 46.886719 356.441406 C 45.921875 355.265625 45.015625 354.042969 44.167969 352.777344 C 43.324219 351.511719 42.539062 350.207031 41.824219 348.863281 C 41.105469 347.519531 40.453125 346.144531 39.871094 344.738281 C 39.289062 343.328125 38.777344 341.898438 38.335938 340.441406 C 37.890625 338.984375 37.523438 337.507812 37.226562 336.015625 C 36.929688 334.519531 36.707031 333.015625 36.554688 331.5 C 36.40625 329.984375 36.332031 328.464844 36.332031 326.941406 L 36.332031 94.441406 C 36.332031 93.054688 36.570312 91.710938 37.054688 90.410156 C 37.535156 89.113281 38.230469 87.9375 39.132812 86.886719 L 108.882812 5.511719 C 109.984375 4.222656 111.308594 3.222656 112.847656 2.511719 C 114.390625 1.800781 116.007812 1.445312 117.703125 1.441406 L 292.074219 1.441406 C 293.597656 1.441406 295.117188 1.515625 296.632812 1.667969 C 298.148438 1.816406 299.652344 2.039062 301.148438 2.335938 C 302.640625 2.632812 304.117188 3.003906 305.574219 3.445312 C 307.03125 3.886719 308.460938 4.398438 309.871094 4.980469 C 311.277344 5.566406 312.652344 6.214844 313.996094 6.933594 C 315.335938 7.652344 316.640625 8.433594 317.910156 9.277344 C 319.175781 10.125 320.398438 11.03125 321.574219 11.996094 C 322.75 12.964844 323.878906 13.984375 324.953125 15.0625 C 326.03125 16.140625 327.054688 17.265625 328.019531 18.441406 C 328.984375 19.621094 329.890625 20.84375 330.738281 22.109375 C 331.582031 23.375 332.367188 24.679688 333.082031 26.023438 C 333.800781 27.367188 334.453125 28.742188 335.035156 30.148438 C 335.617188 31.554688 336.128906 32.988281 336.570312 34.445312 C 337.015625 35.902344 337.382812 37.375 337.679688 38.871094 C 337.976562 40.363281 338.199219 41.867188 338.351562 43.382812 C 338.5 44.898438 338.574219 46.417969 338.574219 47.941406 L 338.574219 326.941406 C 338.574219 328.464844 338.5 329.984375 338.351562 331.5 C 338.199219 333.015625 337.976562 334.519531 337.679688 336.015625 C 337.382812 337.507812 337.015625 338.984375 336.570312 340.441406 C 336.128906 341.898438 335.617188 343.328125 335.035156 344.738281 C 334.453125 346.144531 333.800781 347.519531 333.082031 348.863281 C 332.367188 350.207031 331.582031 351.511719 330.738281 352.777344 C 329.890625 354.042969 328.984375 355.265625 328.019531 356.441406 C 327.054688 357.617188 326.03125 358.746094 324.953125 359.824219 C 323.878906 360.898438 322.75 361.921875 321.574219 362.886719 C 320.398438 363.851562 319.175781 364.757812 317.910156 365.605469 C 316.640625 366.453125 315.335938 367.234375 313.996094 367.953125 C 312.652344 368.667969 311.277344 369.320312 309.871094 369.902344 C 308.460938 370.484375 307.03125 370.996094 305.574219 371.441406 C 304.117188 371.882812 302.640625 372.25 301.148438 372.546875 C 299.652344 372.847656 298.148438 373.070312 296.632812 373.21875 C 295.117188 373.367188 293.597656 373.441406 292.074219 373.441406 Z M 59.582031 98.742188 L 59.582031 326.941406 C 59.582031 327.703125 59.617188 328.464844 59.695312 329.222656 C 59.769531 329.980469 59.878906 330.730469 60.027344 331.476562 C 60.175781 332.226562 60.363281 332.960938 60.582031 333.691406 C 60.804688 334.421875 61.058594 335.136719 61.351562 335.839844 C 61.644531 336.542969 61.96875 337.230469 62.328125 337.902344 C 62.6875 338.574219 63.078125 339.226562 63.5 339.859375 C 63.921875 340.492188 64.375 341.101562 64.859375 341.691406 C 65.34375 342.28125 65.851562 342.84375 66.390625 343.382812 C 66.929688 343.921875 67.492188 344.433594 68.082031 344.914062 C 68.671875 345.398438 69.28125 345.851562 69.914062 346.273438 C 70.546875 346.695312 71.199219 347.089844 71.871094 347.445312 C 72.542969 347.804688 73.230469 348.132812 73.933594 348.421875 C 74.636719 348.714844 75.351562 348.96875 76.082031 349.191406 C 76.8125 349.414062 77.546875 349.597656 78.296875 349.746094 C 79.042969 349.894531 79.792969 350.003906 80.550781 350.082031 C 81.308594 350.15625 82.070312 350.191406 82.832031 350.191406 L 292.074219 350.191406 C 292.835938 350.191406 293.597656 350.15625 294.355469 350.082031 C 295.113281 350.003906 295.863281 349.894531 296.609375 349.746094 C 297.359375 349.597656 298.09375 349.414062 298.824219 349.191406 C 299.554688 348.96875 300.269531 348.714844 300.972656 348.421875 C 301.675781 348.132812 302.363281 347.804688 303.035156 347.445312 C 303.707031 347.089844 304.359375 346.695312 304.992188 346.273438 C 305.625 345.851562 306.234375 345.398438 306.824219 344.914062 C 307.414062 344.433594 307.976562 343.921875 308.515625 343.382812 C 309.054688 342.84375 309.5625 342.28125 310.046875 341.691406 C 310.53125 341.101562 310.984375 340.492188 311.40625 339.859375 C 311.828125 339.226562 312.21875 338.574219 312.578125 337.902344 C 312.9375 337.230469 313.261719 336.542969 313.554688 335.839844 C 313.847656 335.136719 314.101562 334.421875 314.324219 333.691406 C 314.542969 332.960938 314.730469 332.226562 314.878906 331.476562 C 315.027344 330.730469 315.136719 329.980469 315.210938 329.222656 C 315.289062 328.464844 315.324219 327.703125 315.324219 326.941406 L 315.324219 47.941406 C 315.324219 47.179688 315.289062 46.421875 315.210938 45.664062 C 315.136719 44.90625 315.027344 44.152344 314.878906 43.40625 C 314.730469 42.660156 314.542969 41.921875 314.324219 41.191406 C 314.101562 40.464844 313.847656 39.75 313.554688 39.042969 C 313.261719 38.339844 312.9375 37.652344 312.578125 36.980469 C 312.21875 36.3125 311.828125 35.660156 311.40625 35.023438 C 310.984375 34.390625 310.53125 33.78125 310.046875 33.191406 C 309.5625 32.605469 309.054688 32.039062 308.515625 31.503906 C 307.976562 30.964844 307.414062 30.453125 306.824219 29.96875 C 306.234375 29.488281 305.625 29.035156 304.992188 28.609375 C 304.359375 28.1875 303.707031 27.796875 303.035156 27.4375 C 302.363281 27.078125 301.675781 26.753906 300.972656 26.460938 C 300.269531 26.171875 299.554688 25.914062 298.824219 25.695312 C 298.09375 25.472656 297.359375 25.289062 296.609375 25.140625 C 295.863281 24.992188 295.113281 24.878906 294.355469 24.804688 C 293.597656 24.730469 292.835938 24.691406 292.074219 24.691406 L 123.050781 24.691406 Z M 59.582031 98.742188 " fill-opacity="1" fill-rule="nonzero"/></g><g clip-path="url(#id2)"><path fill="rgb(61.178589%, 63.919067%, 68.629456%)" d="M 117.703125 106.066406 L 94.457031 106.066406 C 93.691406 106.066406 92.9375 105.992188 92.1875 105.84375 C 91.4375 105.695312 90.710938 105.472656 90.007812 105.183594 C 89.300781 104.890625 88.632812 104.53125 87.996094 104.109375 C 87.363281 103.683594 86.777344 103.203125 86.234375 102.664062 C 85.695312 102.121094 85.214844 101.535156 84.789062 100.902344 C 84.367188 100.265625 84.007812 99.597656 83.714844 98.890625 C 83.421875 98.1875 83.203125 97.457031 83.054688 96.710938 C 82.90625 95.960938 82.832031 95.207031 82.832031 94.441406 C 82.832031 93.679688 82.90625 92.921875 83.054688 92.175781 C 83.203125 91.425781 83.421875 90.699219 83.714844 89.992188 C 84.007812 89.289062 84.367188 88.617188 84.789062 87.984375 C 85.214844 87.347656 85.695312 86.761719 86.234375 86.222656 C 86.777344 85.683594 87.363281 85.199219 87.996094 84.777344 C 88.632812 84.351562 89.300781 83.996094 90.007812 83.703125 C 90.710938 83.410156 91.4375 83.191406 92.1875 83.039062 C 92.9375 82.890625 93.691406 82.816406 94.457031 82.816406 L 106.082031 82.816406 L 106.082031 13.066406 C 106.082031 12.304688 106.15625 11.546875 106.304688 10.800781 C 106.453125 10.050781 106.671875 9.324219 106.964844 8.617188 C 107.257812 7.914062 107.617188 7.242188 108.039062 6.609375 C 108.464844 5.972656 108.945312 5.386719 109.484375 4.847656 C 110.023438 4.308594 110.613281 3.824219 111.246094 3.402344 C 111.882812 2.976562 112.550781 2.621094 113.257812 2.328125 C 113.960938 2.035156 114.6875 1.816406 115.4375 1.664062 C 116.1875 1.515625 116.941406 1.441406 117.703125 1.441406 C 118.46875 1.441406 119.222656 1.515625 119.972656 1.664062 C 120.722656 1.816406 121.449219 2.035156 122.152344 2.328125 C 122.859375 2.621094 123.527344 2.976562 124.164062 3.402344 C 124.796875 3.824219 125.386719 4.308594 125.925781 4.847656 C 126.464844 5.386719 126.945312 5.972656 127.371094 6.609375 C 127.792969 7.242188 128.152344 7.914062 128.445312 8.617188 C 128.738281 9.324219 128.957031 10.050781 129.105469 10.800781 C 129.253906 11.546875 129.328125 12.304688 129.328125 13.066406 L 129.328125 94.441406 C 129.328125 95.207031 129.253906 95.960938 129.105469 96.710938 C 128.957031 97.457031 128.738281 98.1875 128.445312 98.890625 C 128.152344 99.597656 127.792969 100.265625 127.371094 100.902344 C 126.945312 101.535156 126.464844 102.121094 125.925781 102.664062 C 125.386719 103.203125 124.796875 103.683594 124.164062 104.109375 C 123.527344 104.53125 122.859375 104.890625 122.152344 105.183594 C 121.449219 105.472656 120.722656 105.695312 119.972656 105.84375 C 119.222656 105.992188 118.46875 106.066406 117.703125 106.066406 Z M 117.703125 106.066406 " fill-opacity="1" fill-rule="nonzero"/></g><path fill="rgb(61.178589%, 63.919067%, 68.629456%)" d="M 140.953125 164.191406 C 140.953125 164.957031 140.878906 165.710938 140.730469 166.460938 C 140.582031 167.207031 140.363281 167.9375 140.070312 168.640625 C 139.777344 169.347656 139.417969 170.015625 138.996094 170.652344 C 138.570312 171.285156 138.089844 171.871094 137.550781 172.414062 C 137.011719 172.953125 136.421875 173.433594 135.789062 173.859375 C 135.152344 174.28125 134.484375 174.640625 133.777344 174.933594 C 133.074219 175.222656 132.347656 175.445312 131.597656 175.59375 C 130.847656 175.742188 130.09375 175.816406 129.328125 175.816406 C 128.566406 175.816406 127.808594 175.742188 127.0625 175.59375 C 126.3125 175.445312 125.585938 175.222656 124.882812 174.933594 C 124.175781 174.640625 123.507812 174.28125 122.871094 173.859375 C 122.238281 173.433594 121.648438 172.953125 121.109375 172.414062 C 120.570312 171.871094 120.089844 171.285156 119.664062 170.652344 C 119.238281 170.015625 118.882812 169.347656 118.589844 168.640625 C 118.296875 167.9375 118.078125 167.207031 117.929688 166.460938 C 117.78125 165.710938 117.703125 164.957031 117.703125 164.191406 C 117.703125 163.429688 117.78125 162.671875 117.929688 161.925781 C 118.078125 161.175781 118.296875 160.449219 118.589844 159.742188 C 118.882812 159.039062 119.238281 158.367188 119.664062 157.734375 C 120.089844 157.097656 120.570312 156.511719 121.109375 155.972656 C 121.648438 155.433594 122.238281 154.949219 122.871094 154.527344 C 123.507812 154.101562 124.175781 153.746094 124.882812 153.453125 C 125.585938 153.160156 126.3125 152.941406 127.0625 152.789062 C 127.808594 152.640625 128.566406 152.566406 129.328125 152.566406 C 130.09375 152.566406 130.847656 152.640625 131.597656 152.789062 C 132.347656 152.941406 133.074219 153.160156 133.777344 153.453125 C 134.484375 153.746094 135.152344 154.101562 135.789062 154.527344 C 136.421875 154.949219 137.011719 155.433594 137.550781 155.972656 C 138.089844 156.511719 138.570312 157.097656 138.996094 157.734375 C 139.417969 158.367188 139.777344 159.039062 140.070312 159.742188 C 140.363281 160.449219 140.582031 161.175781 140.730469 161.925781 C 140.878906 162.671875 140.953125 163.429688 140.953125 164.191406 Z M 140.953125 164.191406 " fill-opacity="1" fill-rule="nonzero"/><path fill="rgb(61.178589%, 63.919067%, 68.629456%)" d="M 257.203125 164.191406 C 257.203125 164.957031 257.125 165.710938 256.976562 166.460938 C 256.828125 167.207031 256.609375 167.9375 256.316406 168.640625 C 256.023438 169.347656 255.667969 170.015625 255.242188 170.652344 C 254.816406 171.285156 254.335938 171.871094 253.796875 172.414062 C 253.257812 172.953125 252.667969 173.433594 252.035156 173.859375 C 251.398438 174.28125 250.730469 174.640625 250.023438 174.933594 C 249.320312 175.222656 248.59375 175.445312 247.84375 175.59375 C 247.097656 175.742188 246.339844 175.816406 245.578125 175.816406 C 244.8125 175.816406 244.058594 175.742188 243.308594 175.59375 C 242.558594 175.445312 241.832031 175.222656 241.128906 174.933594 C 240.421875 174.640625 239.753906 174.28125 239.117188 173.859375 C 238.484375 173.433594 237.894531 172.953125 237.355469 172.414062 C 236.816406 171.871094 236.335938 171.285156 235.910156 170.652344 C 235.488281 170.015625 235.128906 169.347656 234.835938 168.640625 C 234.542969 167.9375 234.324219 167.207031 234.175781 166.460938 C 234.027344 165.710938 233.953125 164.957031 233.953125 164.191406 C 233.953125 163.429688 234.027344 162.671875 234.175781 161.925781 C 234.324219 161.175781 234.542969 160.449219 234.835938 159.742188 C 235.128906 159.039062 235.488281 158.367188 235.910156 157.734375 C 236.335938 157.097656 236.816406 156.511719 237.355469 155.972656 C 237.894531 155.433594 238.484375 154.949219 239.117188 154.527344 C 239.753906 154.101562 240.421875 153.746094 241.128906 153.453125 C 241.832031 153.160156 242.558594 152.941406 243.308594 152.789062 C 244.058594 152.640625 244.8125 152.566406 245.578125 152.566406 C 246.339844 152.566406 247.097656 152.640625 247.84375 152.789062 C 248.59375 152.941406 249.320312 153.160156 250.023438 153.453125 C 250.730469 153.746094 251.398438 154.101562 252.035156 154.527344 C 252.667969 154.949219 253.257812 155.433594 253.796875 155.972656 C 254.335938 156.511719 254.816406 157.097656 255.242188 157.734375 C 255.667969 158.367188 256.023438 159.039062 256.316406 159.742188 C 256.609375 160.449219 256.828125 161.175781 256.976562 161.925781 C 257.125 162.671875 257.203125 163.429688 257.203125 164.191406 Z M 257.203125 164.191406 " fill-opacity="1" fill-rule="nonzero"/><path fill="rgb(61.178589%, 63.919067%, 68.629456%)" d="M 257.203125 303.691406 C 256.4375 303.691406 255.683594 303.617188 254.933594 303.46875 C 254.183594 303.320312 253.457031 303.097656 252.753906 302.808594 C 252.046875 302.515625 251.378906 302.15625 250.742188 301.734375 C 250.109375 301.308594 249.519531 300.828125 248.980469 300.289062 C 248.441406 299.746094 247.960938 299.160156 247.535156 298.527344 C 247.113281 297.890625 246.753906 297.222656 246.460938 296.515625 C 246.167969 295.8125 245.949219 295.082031 245.800781 294.335938 C 245.652344 293.585938 245.578125 292.832031 245.578125 292.066406 C 245.578125 290.164062 245.484375 288.265625 245.296875 286.371094 C 245.109375 284.476562 244.832031 282.59375 244.460938 280.726562 C 244.089844 278.859375 243.625 277.015625 243.074219 275.195312 C 242.519531 273.371094 241.878906 271.582031 241.152344 269.824219 C 240.421875 268.066406 239.609375 266.347656 238.714844 264.667969 C 237.816406 262.988281 236.839844 261.359375 235.78125 259.773438 C 234.722656 258.191406 233.589844 256.664062 232.382812 255.191406 C 231.175781 253.722656 229.898438 252.3125 228.550781 250.964844 C 227.207031 249.621094 225.796875 248.34375 224.328125 247.136719 C 222.855469 245.929688 221.328125 244.796875 219.746094 243.738281 C 218.160156 242.679688 216.53125 241.703125 214.851562 240.804688 C 213.171875 239.910156 211.453125 239.09375 209.695312 238.367188 C 207.9375 237.636719 206.148438 236.996094 204.324219 236.445312 C 202.503906 235.890625 200.660156 235.429688 198.792969 235.058594 C 196.925781 234.6875 195.042969 234.410156 193.148438 234.222656 C 191.253906 234.035156 189.355469 233.941406 187.453125 233.941406 C 185.550781 233.941406 183.652344 234.035156 181.757812 234.222656 C 179.863281 234.410156 177.980469 234.6875 176.113281 235.058594 C 174.246094 235.429688 172.402344 235.890625 170.582031 236.445312 C 168.757812 236.996094 166.96875 237.636719 165.210938 238.367188 C 163.453125 239.09375 161.734375 239.910156 160.054688 240.804688 C 158.375 241.703125 156.746094 242.679688 155.160156 243.738281 C 153.578125 244.796875 152.050781 245.929688 150.578125 247.136719 C 149.109375 248.34375 147.699219 249.621094 146.355469 250.964844 C 145.007812 252.3125 143.730469 253.722656 142.523438 255.191406 C 141.316406 256.664062 140.183594 258.191406 139.125 259.773438 C 138.066406 261.359375 137.089844 262.988281 136.191406 264.667969 C 135.296875 266.347656 134.484375 268.066406 133.753906 269.824219 C 133.027344 271.582031 132.386719 273.371094 131.832031 275.195312 C 131.28125 277.015625 130.816406 278.859375 130.445312 280.726562 C 130.074219 282.59375 129.796875 284.476562 129.609375 286.371094 C 129.421875 288.265625 129.328125 290.164062 129.328125 292.066406 C 129.328125 292.832031 129.253906 293.585938 129.105469 294.335938 C 128.957031 295.082031 128.738281 295.8125 128.445312 296.515625 C 128.152344 297.222656 127.792969 297.890625 127.371094 298.527344 C 126.945312 299.160156 126.464844 299.746094 125.925781 300.289062 C 125.386719 300.828125 124.796875 301.308594 124.164062 301.734375 C 123.527344 302.15625 122.859375 302.515625 122.152344 302.808594 C 121.449219 303.097656 120.722656 303.320312 119.972656 303.46875 C 119.222656 303.617188 118.46875 303.691406 117.703125 303.691406 C 116.941406 303.691406 116.1875 303.617188 115.4375 303.46875 C 114.6875 303.320312 113.960938 303.097656 113.257812 302.808594 C 112.550781 302.515625 111.882812 302.15625 111.246094 301.734375 C 110.613281 301.308594 110.023438 300.828125 109.484375 300.289062 C 108.945312 299.746094 108.464844 299.160156 108.039062 298.527344 C 107.617188 297.890625 107.257812 297.222656 106.964844 296.515625 C 106.671875 295.8125 106.453125 295.082031 106.304688 294.335938 C 106.15625 293.585938 106.082031 292.832031 106.082031 292.066406 C 106.082031 290.734375 106.113281 289.40625 106.179688 288.074219 C 106.242188 286.746094 106.339844 285.417969 106.472656 284.089844 C 106.601562 282.765625 106.765625 281.445312 106.960938 280.128906 C 107.15625 278.808594 107.382812 277.496094 107.644531 276.191406 C 107.902344 274.886719 108.195312 273.585938 108.519531 272.292969 C 108.84375 271.003906 109.199219 269.71875 109.585938 268.445312 C 109.972656 267.171875 110.386719 265.90625 110.835938 264.652344 C 111.285156 263.398438 111.765625 262.15625 112.273438 260.925781 C 112.785156 259.695312 113.324219 258.480469 113.894531 257.273438 C 114.460938 256.070312 115.0625 254.882812 115.6875 253.707031 C 116.316406 252.53125 116.972656 251.375 117.65625 250.230469 C 118.34375 249.089844 119.054688 247.964844 119.792969 246.859375 C 120.535156 245.75 121.300781 244.660156 122.09375 243.59375 C 122.886719 242.523438 123.707031 241.472656 124.550781 240.445312 C 125.394531 239.414062 126.265625 238.40625 127.160156 237.417969 C 128.054688 236.433594 128.972656 235.46875 129.914062 234.527344 C 130.855469 233.585938 131.820312 232.667969 132.804688 231.773438 C 133.792969 230.878906 134.800781 230.007812 135.832031 229.164062 C 136.859375 228.320312 137.910156 227.5 138.980469 226.707031 C 140.050781 225.914062 141.136719 225.144531 142.246094 224.40625 C 143.351562 223.667969 144.476562 222.953125 145.617188 222.269531 C 146.761719 221.585938 147.917969 220.929688 149.09375 220.300781 C 150.269531 219.671875 151.457031 219.074219 152.660156 218.503906 C 153.867188 217.9375 155.082031 217.394531 156.3125 216.886719 C 157.542969 216.375 158.785156 215.898438 160.039062 215.449219 C 161.292969 215 162.558594 214.582031 163.832031 214.195312 C 165.105469 213.808594 166.390625 213.453125 167.679688 213.132812 C 168.972656 212.808594 170.273438 212.515625 171.578125 212.257812 C 172.882812 211.996094 174.195312 211.769531 175.511719 211.574219 C 176.832031 211.378906 178.152344 211.214844 179.476562 211.085938 C 180.800781 210.953125 182.128906 210.855469 183.460938 210.789062 C 184.789062 210.726562 186.121094 210.691406 187.453125 210.691406 C 188.785156 210.691406 190.117188 210.726562 191.445312 210.789062 C 192.777344 210.855469 194.105469 210.953125 195.429688 211.085938 C 196.753906 211.214844 198.074219 211.378906 199.394531 211.574219 C 200.710938 211.769531 202.023438 211.996094 203.328125 212.257812 C 204.632812 212.515625 205.933594 212.808594 207.226562 213.132812 C 208.515625 213.453125 209.800781 213.808594 211.074219 214.195312 C 212.347656 214.582031 213.613281 215 214.867188 215.449219 C 216.121094 215.898438 217.363281 216.375 218.59375 216.886719 C 219.824219 217.394531 221.039062 217.9375 222.246094 218.503906 C 223.449219 219.074219 224.636719 219.671875 225.8125 220.300781 C 226.988281 220.929688 228.144531 221.585938 229.289062 222.269531 C 230.429688 222.953125 231.554688 223.667969 232.660156 224.40625 C 233.769531 225.144531 234.855469 225.914062 235.925781 226.707031 C 236.996094 227.5 238.046875 228.320312 239.074219 229.164062 C 240.105469 230.007812 241.113281 230.878906 242.101562 231.773438 C 243.085938 232.667969 244.050781 233.585938 244.992188 234.527344 C 245.933594 235.46875 246.851562 236.433594 247.746094 237.417969 C 248.640625 238.40625 249.511719 239.414062 250.355469 240.445312 C 251.199219 241.472656 252.019531 242.523438 252.8125 243.59375 C 253.605469 244.660156 254.371094 245.75 255.113281 246.859375 C 255.851562 247.964844 256.5625 249.089844 257.25 250.230469 C 257.933594 251.375 258.589844 252.53125 259.21875 253.707031 C 259.84375 254.882812 260.445312 256.070312 261.011719 257.273438 C 261.582031 258.480469 262.121094 259.695312 262.632812 260.925781 C 263.140625 262.15625 263.621094 263.398438 264.070312 264.652344 C 264.519531 265.90625 264.933594 267.171875 265.320312 268.445312 C 265.707031 269.71875 266.0625 271.003906 266.386719 272.292969 C 266.710938 273.585938 267.003906 274.886719 267.261719 276.191406 C 267.523438 277.496094 267.75 278.808594 267.945312 280.128906 C 268.140625 281.445312 268.304688 282.765625 268.433594 284.089844 C 268.566406 285.417969 268.664062 286.746094 268.726562 288.074219 C 268.792969 289.40625 268.824219 290.734375 268.824219 292.066406 C 268.824219 292.832031 268.75 293.585938 268.601562 294.335938 C 268.453125 295.082031 268.234375 295.8125 267.941406 296.515625 C 267.648438 297.222656 267.289062 297.890625 266.867188 298.527344 C 266.441406 299.160156 265.960938 299.746094 265.421875 300.289062 C 264.882812 300.828125 264.292969 301.308594 263.660156 301.734375 C 263.023438 302.15625 262.355469 302.515625 261.648438 302.808594 C 260.945312 303.097656 260.21875 303.320312 259.46875 303.46875 C 258.71875 303.617188 257.964844 303.691406 257.203125 303.691406 Z M 257.203125 303.691406 " fill-opacity="1" fill-rule="nonzero"/></svg>